<svg xmlns="http://www.w3.org/2000/svg" viewBox="0 0 640 360">
  <rect width="640" height="360" fill="#210b0b"/>
  <path d="M0 205 C105 170 190 235 310 190 C435 145 520 215 640 170 L640 360 L0 360 Z" fill="#7a1d1d"/>
  <path d="M0 270 C145 210 260 320 390 250 C500 190 570 240 640 210 L640 360 L0 360 Z" fill="#ff6b35"/>
  <path d="M0 318 C170 270 290 345 420 300 C520 265 580 310 640 280 L640 360 L0 360 Z" fill="#ffb347"/>
  <g fill="#351313">
    <path d="M55 205 L120 95 L185 205 Z"/>
    <path d="M430 185 L510 72 L590 185 Z"/>
  </g>
</svg>
